<?xml version="1.0"?>
<svg xmlns="http://www.w3.org/2000/svg" xmlns:xlink="http://www.w3.org/1999/xlink" xmlns:svgjs="http://svgjs.com/svgjs" version="1.1" width="512" height="512" x="0" y="0" viewBox="0 0 512 512" style="enable-background:new 0 0 512 512" xml:space="preserve" class=""><g><script/><path xmlns="http://www.w3.org/2000/svg" d="m437.019531 74.980469c-48.351562-48.351563-112.640625-74.980469-181.019531-74.980469s-132.667969 26.628906-181.019531 74.980469c-48.351563 48.351562-74.980469 112.636719-74.980469 181.019531 0 68.378906 26.628906 132.667969 74.980469 181.019531 48.351562 48.351563 112.640625 74.980469 181.019531 74.980469s132.667969-26.628906 181.019531-74.980469c48.351563-48.351562 74.980469-112.640625 74.980469-181.019531 0-68.382812-26.628906-132.667969-74.980469-181.019531zm-21.214843 340.824219c-42.683594 42.6875-99.4375 66.195312-159.804688 66.195312s-117.121094-23.507812-159.804688-66.195312c-42.6875-42.683594-66.195312-99.4375-66.195312-159.804688s23.507812-117.121094 66.195312-159.808594c42.683594-42.683594 99.4375-66.191406 159.804688-66.191406s117.121094 23.507812 159.804688 66.191406c42.6875 42.6875 66.195312 99.441406 66.195312 159.808594s-23.507812 117.121094-66.195312 159.804688zm0 0" fill="#ffffff" data-original="#000000" style="" class=""/><path xmlns="http://www.w3.org/2000/svg" d="m256 64.945312c-105.347656 0-191.054688 85.707032-191.054688 191.054688s85.707032 191.054688 191.054688 191.054688 191.054688-85.707032 191.054688-191.054688-85.707032-191.054688-191.054688-191.054688zm0 352.109376c-88.804688 0-161.054688-72.25-161.054688-161.054688 0-88.808594 72.25-161.054688 161.054688-161.054688s161.054688 72.246094 161.054688 161.054688c0 88.804688-72.25 161.054688-161.054688 161.054688zm0 0" fill="#ffffff" data-original="#000000" style="" class=""/><path xmlns="http://www.w3.org/2000/svg" d="m296.246094 162.957031c-5.355469-5.871093-13.601563-7.808593-21.011719-4.9375-7.40625 2.871094-12.195313 9.859375-12.195313 17.804688v23.804687c-58.75 1.628906-106.039062 49.925782-106.039062 109.0625v11.484375c0 7.941407 4.785156 14.929688 12.191406 17.800781 2.277344.882813 4.632813 1.3125 6.957032 1.3125 5.246093 0 10.34375-2.179687 14.050781-6.242187 18.953125-20.765625 45.058593-33.65625 72.839843-36.261719v23.273438c0 7.945312 4.789063 14.933594 12.195313 17.804687 7.40625 2.867188 15.65625.933594 21.011719-4.9375l65.769531-72.121093c6.6875-7.335938 6.683594-18.398438-.003906-25.730469zm-3.207032 128.960938v-6.527344c0-10.527344-8.5625-19.09375-19.09375-19.09375h-.441406c-30.867187 0-60.785156 10.078125-85.234375 28.25 6.683594-36.894531 39.042969-64.960937 77.835938-64.960937h7.839843c10.53125 0 19.097657-8.566407 19.097657-19.09375v-6.527344l40.101562 43.976562zm0 0" fill="#ffffff" data-original="#000000" style="" class=""/></g></svg>
